<?xml version="1.0" encoding="utf-8"?><svg xmlns="http://www.w3.org/2000/svg" xmlns:xlink="http://www.w3.org/1999/xlink"><symbol viewBox="0 0 9.298 10.543" id="arrow" xmlns="http://www.w3.org/2000/svg"><path data-name="Контур 3008" d="M8.982 5.986l-.02.021-4.243 4.243a1 1 0 11-1.413-1.414l2.578-2.579H.998a1 1 0 110-2h4.857l-2.55-2.55A1 1 0 114.719.292l4.13 4.13a1 1 0 01.133 1.563z"/></symbol><symbol viewBox="0 0 18.031 18.066" id="case" xmlns="http://www.w3.org/2000/svg"><g data-name="briefcase (1)"><g data-name="Сгруппировать 2339"><g data-name="Сгруппировать 2338" opacity=".8"><path data-name="Контур 2098" d="M2.817 13.824V8.753a3.541 3.541 0 013.544-3.522H4.319A3.522 3.522 0 00.797 8.753v5.071a3.522 3.522 0 003.522 3.522h2.043a3.541 3.541 0 01-3.545-3.522z" opacity=".2"/></g></g><g data-name="Сгруппировать 2340"><ellipse data-name="Эллипс 1074" cx=".881" cy=".879" rx=".881" ry=".879" transform="rotate(-45.04 14.932 -4.8)"/></g><g data-name="Сгруппировать 2341"><path data-name="Контур 2099" d="M13.805 18.066H4.226A4.231 4.231 0 010 13.843V8.772a4.231 4.231 0 014.226-4.229h9.579a4.231 4.231 0 014.226 4.226v5.074a4.231 4.231 0 01-4.226 4.223zM4.226 5.952a2.821 2.821 0 00-2.817 2.817v5.074a2.821 2.821 0 002.817 2.817h9.579a2.821 2.821 0 002.817-2.817V8.772a2.821 2.821 0 00-2.817-2.817z"/></g><g data-name="Сгруппировать 2342"><path data-name="Контур 2100" d="M10.741 13.312H7.29a3.843 3.843 0 01-3.839-3.843.705.705 0 111.409 0 2.433 2.433 0 002.43 2.43h3.451a2.433 2.433 0 002.43-2.43.705.705 0 011.409 0 3.843 3.843 0 01-3.839 3.843z"/></g><g data-name="Сгруппировать 2343"><path data-name="Контур 2101" d="M11.657 3.134a.7.7 0 01-.7-.7 1.022 1.022 0 00-1.021-1.021H8.1a1.022 1.022 0 00-1.021 1.021.705.705 0 01-1.409 0A2.433 2.433 0 018.1 0h1.831a2.433 2.433 0 012.43 2.43.7.7 0 01-.704.704z"/></g></g></symbol><symbol viewBox="0 0 28.1 28" id="coin-minus" xmlns="http://www.w3.org/2000/svg"><path class="acst1" d="M11 26.744c-4.4.9-8.8-2-9.7-6.4-.9-4.4 2-8.8 6.4-9.7 1.1-.2 2.2-.2 3.3 0-4.4.9-7.3 5.2-6.4 9.7.6 3.3 3.1 5.8 6.4 6.4zm11.3-20c-4.4 0-8-1.2-8-2.6s3.6-2.6 8-2.6h.9c-1.4-.3-2.8-.5-4.2-.5-4.4 0-8 1.4-8 3.1s3.6 3.1 8 3.1c1.4 0 2.8-.1 4.2-.5h-.9z" opacity=".2"/><path class="acst1" d="M19 8.344c-2.1 0-4.1-.3-6-1-2.7-1-3-2.4-3-3.2s.4-2.2 3-3.2c1.9-.7 4-1 6-1 2.1 0 4.1.3 6 1 2.6 1 3 2.4 3 3.2s-.4 2.2-3 3.2c-1.9.7-3.9 1-6 1zm0-6.2c-1.8 0-3.6.2-5.3.8-1.2.5-1.6 1-1.6 1.1s.4.7 1.6 1.1c1.7.6 3.5.9 5.3.8 1.8 0 3.6-.2 5.3-.8 1.2-.5 1.6-1 1.6-1.1s-.4-.7-1.6-1.1c-1.7-.5-3.5-.8-5.3-.8zm8.4 24.3c.6-.2.9-.8.7-1.4-.2-.6-.8-.9-1.4-.7-.1 0-.1.1-.2.1-2.5 1-5.2 1.5-7.9 1.4-.6-.1-1.1.4-1.2 1-.1.6.4 1.1 1 1.2h.6c2.8 0 5.7-.5 8.4-1.6zm-6-3.4c2.1-.2 4.1-.7 6-1.5.6-.2.9-.8.7-1.4-.2-.6-.8-.9-1.4-.7-.1 0-.1.1-.2.1-1.7.7-3.5 1.1-5.3 1.3-.6.1-1 .7-.9 1.3.1.5.5.9 1 .9h.1zm.4-5c1.9-.2 3.8-.7 5.6-1.4.5-.3.7-1 .4-1.5-.3-.5-.8-.7-1.3-.5-1.6.7-3.3 1.1-5 1.2-.6.1-1 .7-.9 1.3.1.5.5.9 1 .9h.2zm-1.8-4.8c2.5-.1 5.1-.6 7.4-1.6.6-.2.9-.8.7-1.4s-.8-.9-1.4-.7c-.1 0-.1.1-.2.1-2.1.9-4.3 1.3-6.6 1.4-.6.1-1 .6-1 1.2.1.5.5 1 1.1 1zm-10.7 14.8c-5.1 0-9.3-4.2-9.3-9.3s4.2-9.3 9.3-9.3 9.3 4.2 9.3 9.3c0 5.1-4.2 9.3-9.3 9.3zm0-16.4c-3.9 0-7.1 3.2-7.1 7.1s3.2 7.1 7.1 7.1 7.1-3.2 7.1-7.1c0-3.9-3.2-7.1-7.1-7.1z"/><path class="acst1" d="M11.8 20.144H6.6c-.6 0-1-.4-1-1s.4-1 1-1h5.2c.6 0 1 .4 1 1s-.4 1-1 1z"/></symbol><symbol viewBox="0 0 28.1 28" id="coin-plus" xmlns="http://www.w3.org/2000/svg"><path class="adst1" d="M11 26.744c-4.4.9-8.8-2-9.7-6.4-.9-4.4 2-8.8 6.4-9.7 1.1-.2 2.2-.2 3.3 0-4.4.9-7.3 5.2-6.4 9.7.6 3.3 3.1 5.8 6.4 6.4zm11.3-20c-4.4 0-8-1.2-8-2.6s3.6-2.6 8-2.6h.9c-1.4-.3-2.8-.5-4.2-.5-4.4 0-8 1.4-8 3.1s3.6 3.1 8 3.1c1.4 0 2.8-.1 4.2-.5h-.9z" opacity=".2"/><path class="adst1" d="M19 8.344c-2.1 0-4.1-.3-6-1-2.7-1-3-2.4-3-3.2s.4-2.2 3-3.2c1.9-.7 4-1 6-1 2.1 0 4.1.3 6 1 2.6 1 3 2.4 3 3.2s-.4 2.2-3 3.2c-1.9.7-3.9 1-6 1zm0-6.2c-1.8 0-3.6.2-5.3.8-1.2.5-1.6 1-1.6 1.1s.4.7 1.6 1.1c1.7.6 3.5.9 5.3.8 1.8 0 3.6-.2 5.3-.8 1.2-.5 1.6-1 1.6-1.1s-.4-.7-1.6-1.1c-1.7-.5-3.5-.8-5.3-.8zm8.4 24.3c.6-.2.9-.8.7-1.4-.2-.6-.8-.9-1.4-.7-.1 0-.1.1-.2.1-2.5 1-5.2 1.5-7.9 1.4-.6-.1-1.1.4-1.2 1-.1.6.4 1.1 1 1.2h.6c2.8 0 5.7-.5 8.4-1.6zm-6-3.4c2.1-.2 4.1-.7 6-1.5.6-.2.9-.8.7-1.4-.2-.6-.8-.9-1.4-.7-.1 0-.1.1-.2.1-1.7.7-3.5 1.1-5.3 1.3-.6.1-1 .7-.9 1.3.1.5.5.9 1 .9h.1zm.4-5c1.9-.2 3.8-.7 5.6-1.4.5-.3.7-1 .4-1.5-.3-.5-.8-.7-1.3-.5-1.6.7-3.3 1.1-5 1.2-.6.1-1 .7-.9 1.3.1.5.5.9 1 .9h.2zm-1.8-4.8c2.5-.1 5.1-.6 7.4-1.6.6-.2.9-.8.7-1.4s-.8-.9-1.4-.7c-.1 0-.1.1-.2.1-2.1.9-4.3 1.3-6.6 1.4-.6.1-1 .6-1 1.2.1.5.5 1 1.1 1zm-10.7 14.8c-5.1 0-9.3-4.2-9.3-9.3s4.2-9.3 9.3-9.3 9.3 4.2 9.3 9.3c0 5.1-4.2 9.3-9.3 9.3zm0-16.4c-3.9 0-7.1 3.2-7.1 7.1s3.2 7.1 7.1 7.1 7.1-3.2 7.1-7.1c0-3.9-3.2-7.1-7.1-7.1z"/><path class="adst1" d="M9.2 20.144c-.6 0-1-.4-1-1s.4-1 1-1 1 .4 1 1-.4 1-1 1z"/><path class="adst1" d="M9.2 23.5c-.6 0-1-.4-1-1v-7.6c0-.6.4-1 1-1s1 .4 1 1v7.6c0 .6-.4 1-1 1z"/><path class="adst1" d="M13 19.7H5.4c-.6 0-1-.4-1-1s.4-1 1-1H13c.6 0 1 .4 1 1s-.4 1-1 1z"/></symbol><symbol viewBox="0 0 25.584 25.538" id="coin_down" xmlns="http://www.w3.org/2000/svg"><path data-name="Контур 2072" d="M9.976 24.391a7.482 7.482 0 110-14.664 7.484 7.484 0 000 14.664zM20.298 6.185c-4.022 0-7.282-1.072-7.282-2.394s3.26-2.394 7.282-2.394q.416 0 .82.015a16.822 16.822 0 00-3.817-.414c-4.022 0-7.282 1.251-7.282 2.793s3.26 2.793 7.282 2.793a16.822 16.822 0 003.817-.414q-.4.015-.82.015z" opacity=".2"/><path data-name="Контур 2073" d="M17.3 7.582a15.9 15.9 0 01-5.5-.885c-2.416-.925-2.776-2.218-2.776-2.906S9.384 1.81 11.8.884A15.9 15.9 0 0117.3 0a15.9 15.9 0 015.507.884c2.413.926 2.773 2.218 2.773 2.907s-.36 1.981-2.773 2.907a15.9 15.9 0 01-5.507.884zm0-5.586a14.089 14.089 0 00-4.792.752c-1.128.433-1.493.89-1.493 1.044s.365.611 1.493 1.044a14.09 14.09 0 004.792.752 14.09 14.09 0 004.8-.753c1.128-.433 1.493-.89 1.493-1.044s-.369-.611-1.493-1.047a14.089 14.089 0 00-4.8-.749zm7.644 22.11a1 1 0 10-.813-1.822 17.8 17.8 0 01-7.159 1.26 1 1 0 10-.026 1.995h.32a19.328 19.328 0 007.681-1.433zm-5.456-3.11a17.684 17.684 0 005.456-1.329 1 1 0 10-.813-1.822 15.687 15.687 0 01-4.83 1.165 1 1 0 00.093 1.991h.095zm.319-4.521a17.433 17.433 0 005.137-1.3 1 1 0 00-.813-1.822 15.436 15.436 0 01-4.539 1.135 1 1 0 00.106 1.989 1.017 1.017 0 00.109-.006zm-1.616-4.421a18.855 18.855 0 006.753-1.415 1 1 0 00-.813-1.822 16.837 16.837 0 01-6.017 1.243 1 1 0 00.038 1.994h.039zM8.48 25.538a8.48 8.48 0 118.48-8.48 8.489 8.489 0 01-8.48 8.48zm0-14.964a6.484 6.484 0 106.484 6.484 6.492 6.492 0 00-6.484-6.484z"/><path data-name="Контур 2074" d="M5.195 16.577l3.4 2.821 3.424-3"/></symbol><symbol viewBox="0 0 25.584 25.538" id="coin_up" xmlns="http://www.w3.org/2000/svg"><path data-name="Контур 2072" d="M9.976 24.391a7.482 7.482 0 110-14.664 7.484 7.484 0 000 14.664zM20.298 6.185c-4.022 0-7.282-1.072-7.282-2.394s3.26-2.394 7.282-2.394q.416 0 .82.015a16.822 16.822 0 00-3.817-.414c-4.022 0-7.282 1.251-7.282 2.793s3.26 2.793 7.282 2.793a16.822 16.822 0 003.817-.414q-.4.015-.82.015z" opacity=".2"/><path data-name="Контур 2073" d="M17.3 7.582a15.9 15.9 0 01-5.5-.885c-2.416-.925-2.776-2.218-2.776-2.906S9.384 1.81 11.8.884A15.9 15.9 0 0117.3 0a15.9 15.9 0 015.507.884c2.413.926 2.773 2.218 2.773 2.907s-.36 1.981-2.773 2.907a15.9 15.9 0 01-5.507.884zm0-5.586a14.089 14.089 0 00-4.792.752c-1.128.433-1.493.89-1.493 1.044s.365.611 1.493 1.044a14.09 14.09 0 004.792.752 14.09 14.09 0 004.8-.753c1.128-.433 1.493-.89 1.493-1.044s-.369-.611-1.493-1.047a14.089 14.089 0 00-4.8-.749zm7.644 22.11a1 1 0 10-.813-1.822 17.8 17.8 0 01-7.159 1.26 1 1 0 10-.026 1.995h.32a19.328 19.328 0 007.681-1.433zm-5.456-3.11a17.684 17.684 0 005.456-1.329 1 1 0 10-.813-1.822 15.687 15.687 0 01-4.83 1.165 1 1 0 00.093 1.991h.095zm.319-4.521a17.433 17.433 0 005.137-1.3 1 1 0 00-.813-1.822 15.436 15.436 0 01-4.539 1.135 1 1 0 00.106 1.989 1.017 1.017 0 00.109-.006zm-1.616-4.421a18.855 18.855 0 006.753-1.415 1 1 0 00-.813-1.822 16.837 16.837 0 01-6.017 1.243 1 1 0 00.038 1.994h.039zM8.48 25.538a8.48 8.48 0 118.48-8.48 8.489 8.489 0 01-8.48 8.48zm0-14.964a6.484 6.484 0 106.484 6.484 6.492 6.492 0 00-6.484-6.484z"/><path data-name="Контур 2074" d="M5.195 18.22l3.4-2.821 3.424 3"/></symbol><symbol viewBox="0 0 51.373 51.373" id="coinicon" xmlns="http://www.w3.org/2000/svg"><g data-name="Layer 1" style="mix-blend-mode:soft-light;isolation:isolate"><path data-name="Контур 3228" d="M15.709 21.587l9.977-9.977 9.982 9.981 5.805-5.805L25.686 0 9.9 15.782l5.8 5.805M0 25.686l5.805-5.806 5.8 5.8L5.8 31.49zm15.709 4.1l9.977 9.976 9.981-9.981 5.808 5.8-15.789 15.792L9.9 35.591v-.008l5.814-5.8m24.052-4.1l5.805-5.805 5.8 5.8-5.805 5.805z"/><path data-name="Контур 3229" d="M31.574 25.684l-5.887-5.891-4.354 4.352-.5.5-1.032 1.033-.008.008.008.007 5.885 5.886 5.891-5.886h-.005"/></g></symbol><symbol viewBox="0 0 15.074 18.424" id="copy" xmlns="http://www.w3.org/2000/svg"><path data-name="Контур 1746" d="M0 15.074V0h11.725v3.35h3.35v15.074H3.35v-3.35zM10.05 13.4V1.675H1.675V13.4zm1.675-8.375v10.05h-6.7v1.675H13.4V5.025z" fill-rule="evenodd"/></symbol><symbol viewBox="0 0 11.992 10.006" id="download" xmlns="http://www.w3.org/2000/svg"><path data-name="Контур 1846" d="M-.001 10.006V8.014h5.992L1.762 3.889 3.17 2.516l1.826 1.775V0h1.993v4.291l1.822-1.775 1.412 1.373L5.99 8.014h6v1.992z"/></symbol><symbol viewBox="0 0 24 24" id="help" xmlns="http://www.w3.org/2000/svg"><path d="M5.1 15.4l-2.5.7.7-2.5-.2-.3c-.8-1.2-1.2-2.6-1.2-4 0-4.1 3.3-7.4 7.4-7.4s7.4 3.3 7.4 7.4-3.3 7.4-7.4 7.4c-1.4 0-2.8-.4-4-1.2l-.2-.1zm16.8 1.7c0 .1 0 .4.2.5.2.2.4.2.5.1h.2s.2-.1.4-.3c.4-.8.2-.7.2-1.3 0-3.3-2.2-6.2-5.4-7.1C17.8 3.9 13.2-.1 7.9.8c-3.2.4-6 2.8-6.9 5.9-.7 2.4-.4 5 .8 7L.9 17c-.1.4.3.8.7.7l3.3-.9 1.8.2c.8.1 1.6.4 2.2 1 .9 3.2 3.8 5.4 7.1 5.4 1.3 0 2.6-.4 3.8-1l3.6 1-1-3.4c-.2-.3-.5-.5-.8-.4-.4.1-.6.4-.6.4l.4 1.5-1.9-.5-.3.2c-1 .6-2.1 1-3.3 1-2.6 0-4.9-1.7-5.7-4.1 4-.5 7.2-3.6 7.6-7.6 2.4.8 4.1 3.1 4.1 5.7v.9z"/><path d="M21.9 16.6V16c0-2.4-1.5-4.5-3.7-5.4-.6 3.8-3.7 6.9-7.5 7.5.9 2.2 3 3.7 5.4 3.7 1.1 0 2.2-.3 3.1-.9l.3-.2 1.6.4-.3-1.2v-.1s.2-.5.8-.6c.4-.1.8.2 1 .6l1.1 3.9-3.9-1.1c-1.1.7-2.5 1-3.8 1-3.4 0-6.4-2.3-7.3-5.5-.6-.5-1.3-.8-2.1-.9L4.8 17l-3.2 1c-.3.1-.6 0-.8-.2-.2-.2-.3-.5-.2-.8l.9-3.2C.3 11.6 0 9.1.7 6.6 1.7 3.4 4.4 1 7.8.4c2.6-.4 5.1.3 7.1 1.9 1.9 1.6 3.1 3.9 3.3 6.4 3.2 1 5.4 3.9 5.4 7.3v.3c0 .5 0 .5-.3 1.2-.2.3-.5.5-.5.5-.1 0-.2.1-.3.1-.1 0-.4 0-.7-.2-.2-.2-.2-.4-.2-.5v-.3l.3-.5zm-17-.1l1.9.2c.9.1 1.7.5 2.4 1l.1.1v.1c.9 3.1 3.7 5.2 6.9 5.2 1.3 0 2.5-.3 3.6-1l.1-.1 3.1 1-.8-3c-.1-.2-.3-.3-.5-.3s-.3.1-.4.2l.5 1.8-2.2-.6-.2.1c-1 .7-2.2 1-3.4 1-2.7 0-5.1-1.7-6-4.3v-.2h.3c3.9-.4 7-3.6 7.4-7.4V10l.3.1c2.6.9 4.3 3.3 4.3 5.9v1l.1-.2c0 .3-.1 0-.3.3 0 .1 0 .2.1.3.1.1.2.1.3.1h.1s.2-.1.2-.2c.3-.6.2-.4.2-.9v-.3c0-3.2-2.1-6-5.2-6.9h-.2V9c-.1-2.4-1.2-4.7-3.1-6.2C12.7 1.2 10.3.6 7.9 1c-3.1.5-5.8 2.7-6.7 5.8-.7 2.3-.4 4.7.8 6.8l.1.1-.9 3.4c0 .2 0 .3.1.3.1.1.2.1.3.1l3.3-1zm4.4.4c-1.5 0-2.9-.4-4.1-1.2l-.2-.1-2.9.8.9-2.8-.1-.2c-.8-1.2-1.2-2.6-1.2-4.1 0-4.2 3.4-7.6 7.6-7.6 4.2 0 7.6 3.4 7.6 7.6 0 4.2-3.4 7.6-7.6 7.6zm-4.2-1.8l.3.2c1.1.7 2.5 1.1 3.8 1.1 3.9 0 7.1-3.2 7.1-7.1 0-3.9-3.2-7.1-7.1-7.1-3.9 0-7.1 3.2-7.1 7.1 0 1.4.4 2.7 1.1 3.8l.2.3-.6 2.2 2.3-.5z"/><path d="M8.8 12.8c.3-.3.8-.3 1.1 0s.3.8 0 1.1-.8.3-1.1 0-.3-.8 0-1.1z"/><path d="M9.3 14.4c-.3 0-.5-.1-.7-.3-.4-.4-.4-1 0-1.4.4-.4 1.1-.4 1.4 0 .4.4.4 1 0 1.4-.2.2-.4.3-.7.3zm0-1.6c-.1 0-.3.1-.4.2-.2.2-.2.5 0 .7.2.2.5.2.7 0 .2-.2.2-.5 0-.7 0-.1-.2-.2-.3-.2zm1.3-5.5c0 .4-.2.7-.4 1L8.6 9.7v1.7c.2.3 1.2.5 1.3 0 .1-.3.1-.6 0-1l1.1-1c.7-.7 1-1.4 1-2.1 0-1.5-1.2-2.7-2.7-2.7-1.5 0-2.6 1.2-2.7 2.6 0 0 0 .1.1.1.4.6 1.2 0 1.2 0v-.1c0-.7.6-1.3 1.3-1.3 1 0 1.4.9 1.4 1.4z"/><path d="M9.4 11.9c-.4 0-.8-.2-1-.4-.1-.1-.1-.3-.1-1v-.9L10 8.1c.2-.2.4-.5.4-.8 0-.2-.1-.4-.3-.7-.1-.2-.4-.4-.8-.4-.6 0-1.1.5-1.1 1l-.1.3v.1c-.1 0-.6.3-1.1.2-.2 0-.4-.2-.5-.4 0 0-.1-.2-.1-.3 0-1.6 1.4-2.8 2.9-2.8 1.6 0 2.9 1.3 2.9 2.9 0 .8-.3 1.6-1 2.2l-1 .9c.1.4.1.7 0 1-.1.3-.3.4-.6.5 0 .1-.1.1-.2.1zm-.5-2.1v1.3c.1.1.4.3.7.2.2 0 .2-.1.2-.1.1-.2.1-.5 0-.9v-.1L11 9.1c.5-.5.8-1.1.8-1.8 0-1.3-1.1-2.4-2.4-2.4-1.4 0-2.5 1-2.5 2.3.2.3.7.1.8 0 0-.8.7-1.5 1.6-1.5.5 0 .9.2 1.2.6.3.3.4.7.4 1 0 .4-.2.9-.5 1.2L8.9 9.8z"/><path d="M6.7 7.3c.1.1.3.4.6.3.1 0 .4 0 .5-.2.1 0 .2-.1.2-.2"/><path d="M7.3 7.9c-.4 0-.6-.2-.7-.3l.3-.4.1.1s.1.1.3.1c.3 0 .4-.1.4-.1v-.1H8l.2.1c0 .1-.1.2-.1.3-.2.3-.6.3-.8.3z"/></symbol><symbol viewBox="0 0 24.817 24.817" id="internet" xmlns="http://www.w3.org/2000/svg"><path data-name="Контур 1780" d="M3.877 12.408a11.441 11.441 0 019.985-11.347 11.44 11.44 0 10-1.454 22.787 11.545 11.545 0 001.454-.092 11.441 11.441 0 01-9.985-11.348z" opacity=".2"/><path data-name="Контур 1781" d="M20.939 12.409a.969.969 0 01-.969.969h-2.391c-.013.431-.033.859-.063 1.281a.97.97 0 01-.966.9h-.07a.969.969 0 01-.9-1.036c.027-.376.046-.758.058-1.143h-6.45a25.116 25.116 0 001.19 6.11.97.97 0 11-1.851.577 26.857 26.857 0 01-1.28-6.687h-2.4a.97.97 0 010-1.939h2.4a26.739 26.739 0 011.287-6.69.97.97 0 011.85.58 25 25 0 00-1.2 6.108h6.444a24.207 24.207 0 00-1.143-6.108.97.97 0 011.85-.58 26.042 26.042 0 011.234 6.688h2.4a.969.969 0 01.969.969zm.243-8.774A12.409 12.409 0 003.634 21.183a12.328 12.328 0 008.774 3.634 12.567 12.567 0 001.576-.1.97.97 0 10-.244-1.923 10.631 10.631 0 01-1.332.084 10.47 10.47 0 1110.47-10.47A10.63 10.63 0 0122.8 13.7a.97.97 0 101.924.236 12.573 12.573 0 00.094-1.526 12.328 12.328 0 00-3.634-8.774z"/><path data-name="Контур 1782" d="M17.305 22.874a.969.969 0 01-.969-.969v-2.71a2.912 2.912 0 012.908-2.908h2.763a.97.97 0 010 1.939h-2.764a.971.971 0 00-.969.969v2.714a.969.969 0 01-.969.965zm7.229 1.655a.969.969 0 000-1.371l-3.2-3.2a.97.97 0 10-1.371 1.371l3.2 3.2a.969.969 0 001.371 0z" opacity=".7"/></symbol><symbol viewBox="0 0 28.428 40.612" id="lock" xmlns="http://www.w3.org/2000/svg"><g data-name="Сгруппировать 2407"><g data-name="Сгруппировать 2406"><path data-name="Контур 3045" d="M25.386 16.245H3.042A3.045 3.045 0 000 19.278v18.3a3.041 3.041 0 003.042 3.037h22.344a3.045 3.045 0 003.042-3.037v-18.3a3.041 3.041 0 00-3.042-3.033zm-1.019 20.306H4.061V20.306h20.306z"/></g></g><g data-name="Сгруппировать 2409"><g data-name="Сгруппировать 2408"><path data-name="Контур 3046" d="M14.571 0h-.714a9.8 9.8 0 00-9.8 9.8v7.771h4.061V9.8a5.743 5.743 0 015.735-5.741h.714A5.743 5.743 0 0120.306 9.8v7.771h4.061V9.8A9.8 9.8 0 0014.571 0z"/></g></g></symbol><symbol viewBox="0 0 30.606 24.03" id="mail" xmlns="http://www.w3.org/2000/svg"><path data-name="Контур 2095" d="M29.41 24.03H7.173A7.181 7.181 0 010 16.857V7.173A7.181 7.181 0 017.173-.002h16.26a7.181 7.181 0 017.173 7.173v11.576a1.2 1.2 0 01-2.391 0V7.173a4.788 4.788 0 00-4.782-4.782H7.173a4.788 4.788 0 00-4.782 4.782v9.684a4.788 4.788 0 004.782 4.782H29.41a1.2 1.2 0 110 2.391zm-9.757-9.839l5.76-4.394a1.2 1.2 0 00-1.45-1.9L18.2 12.291a4.794 4.794 0 01-5.8 0L6.7 7.943a1.2 1.2 0 00-1.45 1.9l5.7 4.348a7.191 7.191 0 008.7 0z"/></symbol><symbol viewBox="0 0 58.381 58.381" id="ok" xmlns="http://www.w3.org/2000/svg"><path data-name="Контур 1563" d="M9.123 29.19A26.915 26.915 0 0132.612 2.496a26.911 26.911 0 10-3.421 53.6 27.157 27.157 0 003.421-.216A26.915 26.915 0 019.123 29.19z" opacity=".2"/><path data-name="Контур 1564" d="M29.19 58.381A29.191 29.191 0 018.55 8.55a29.191 29.191 0 0141.281 41.281 29 29 0 01-20.641 8.55zm0-53.82A24.629 24.629 0 1053.82 29.19 24.657 24.657 0 0029.19 4.561z"/><path data-name="Контур 1565" d="M27.494 37.742a7.024 7.024 0 01-5.022-2.1l-4.365-4.4a2.28 2.28 0 113.239-3.211l4.365 4.4a2.5 2.5 0 003.566 0l9.014-9.071a2.28 2.28 0 013.235 3.215l-9.012 9.069a7.023 7.023 0 01-5.02 2.098z"/></symbol><symbol viewBox="0 0 28.016 28.016" id="pay-per-click" xmlns="http://www.w3.org/2000/svg"><path data-name="Контур 1852" d="M4.378 21.449V6.567a5.471 5.471 0 015.471-5.472l11.6.012v-.012H6.567a5.471 5.471 0 00-5.472 5.472v14.882a5.472 5.472 0 005.472 5.472l2.848-.017a5.472 5.472 0 01-5.037-5.455z" opacity=".2"/><path data-name="Контур 1855" d="M16.858 15.461a1.095 1.095 0 010-2.189h5.685a1.095 1.095 0 010 2.189z"/><path data-name="Контур 1857" d="M11.986 15.461a1.095 1.095 0 010-2.189h.015a1.095 1.095 0 010 2.189z"/><path data-name="Контур 1856" d="M12.366 28.016h-5.8A6.574 6.574 0 010 21.449V6.566A6.574 6.574 0 016.566 0h14.883a6.574 6.574 0 016.566 6.566v14.883a6.574 6.574 0 01-6.566 6.566zm9.083-2.189a4.382 4.382 0 004.377-4.377V6.566a4.383 4.383 0 00-4.377-4.378H6.566a4.384 4.384 0 00-4.378 4.378v14.883a4.383 4.383 0 004.378 4.377h14.883z"/></symbol><symbol viewBox="0 0 26.027 26.027" id="pie-chart" xmlns="http://www.w3.org/2000/svg"><path data-name="Контур 2069" d="M4.144 14.034a10.983 10.983 0 017.117-10.28 2.014 2.014 0 00-1.75-.417A10.981 10.981 0 0013.557 24.9a10.954 10.954 0 01-9.413-10.866z" opacity=".2"/><path data-name="Контур 2070" d="M12 26.027A12 12 0 012.65 6.514a12.046 12.046 0 016.635-4.17 3.049 3.049 0 013.728 2.977v6.681a1.018 1.018 0 001.017 1.017h6.68a3.049 3.049 0 012.973 3.732A12 12 0 0112 26.027zM9.968 4.298a1.011 1.011 0 00-.228.026A9.964 9.964 0 1021.7 16.287a1 1 0 00-.194-.854 1.015 1.015 0 00-.8-.385h-6.677a3.053 3.053 0 01-3.05-3.05V5.321a1.015 1.015 0 00-.385-.8 1 1 0 00-.626-.223zm-.457-.964z"/><path data-name="Контур 2071" d="M22.904 10.981h-4.736a3.126 3.126 0 01-3.122-3.122V3.123a3.124 3.124 0 014.055-2.98 10.278 10.278 0 016.783 6.783 3.125 3.125 0 01-2.98 4.055zm-4.735-8.946a1.089 1.089 0 00-.649.215 1.074 1.074 0 00-.441.873v4.736a1.09 1.09 0 001.089 1.089h4.736a1.075 1.075 0 00.873-.441 1.091 1.091 0 00.164-.98 8.245 8.245 0 00-5.442-5.442 1.12 1.12 0 00-.33-.05z"/></symbol><symbol viewBox="0 0 12.915 13.903" id="play" xmlns="http://www.w3.org/2000/svg"><path data-name="Контур 54" d="M3.767 13.903a3.774 3.774 0 01-1.871-.5 3.7 3.7 0 01-1.9-3.251v-6.4a3.7 3.7 0 011.9-3.251 3.74 3.74 0 013.8.036l5.384 3.2a3.735 3.735 0 010 6.43l-5.384 3.2a3.771 3.771 0 01-1.929.536zm-.323-2.765l6.549-3.782a.465.465 0 000-.808L3.444 2.766a.5.5 0 00-.514 0 .452.452 0 00-.243.409v7.564a.452.452 0 00.243.409 1.554 1.554 0 00.514 0z"/></symbol><symbol viewBox="0 0 18.032 20.935" id="profit" xmlns="http://www.w3.org/2000/svg"><path data-name="Контур 2081" d="M15.17 6.802a5.014 5.014 0 01-1.227.149c-1.807 0-3.271-.915-3.271-2.044s1.465-2.045 3.272-2.045a5.014 5.014 0 011.227.149c-1.2.3-2.044 1.037-2.044 1.9s.845 1.587 2.043 1.891zM3.312 11.531c0-.858.846-1.592 2.044-1.9a5.015 5.015 0 00-1.227-.149c-1.807 0-3.271.915-3.271 2.044s1.465 2.044 3.271 2.044a5.014 5.014 0 001.229-.144c-1.2-.304-2.046-1.038-2.046-1.895z" opacity=".2"/><path data-name="Контур 2082" d="M13.943 7.768c-2.293 0-4.089-1.257-4.089-2.862s1.796-2.862 4.089-2.862 4.089 1.257 4.089 2.862-1.796 2.862-4.089 2.862zm0-4.089a3.648 3.648 0 00-1.88.474.78.78 0 000 1.5 3.96 3.96 0 003.759 0 .78.78 0 000-1.5 3.648 3.648 0 00-1.879-.473zm3.71 16.118a.818.818 0 10-.959-1.325 5.151 5.151 0 01-5.583 0 .818.818 0 10-.959 1.325 6.756 6.756 0 007.5 0zm0-3.271a.818.818 0 10-.959-1.325 5.151 5.151 0 01-5.583 0 .818.818 0 10-.959 1.325 6.756 6.756 0 007.5 0zm0-3.312a.818.818 0 10-.959-1.325 5.151 5.151 0 01-5.583 0 .818.818 0 10-.959 1.325 6.756 6.756 0 007.5 0zm0-3.312a.818.818 0 10-.959-1.325 5.151 5.151 0 01-5.583 0 .818.818 0 10-.959 1.325 6.756 6.756 0 007.5 0zM4.13 14.392c-2.293 0-4.089-1.257-4.089-2.862s1.8-2.862 4.089-2.862 4.089 1.257 4.089 2.862-1.797 2.863-4.089 2.863zm0-4.089a3.648 3.648 0 00-1.88.474.78.78 0 000 1.5 3.96 3.96 0 003.759 0 .78.78 0 000-1.5 3.648 3.648 0 00-1.879-.473zm3.71 9.494a.818.818 0 10-.959-1.325 5.151 5.151 0 01-5.583 0 .818.818 0 10-.959 1.325 6.756 6.756 0 007.5 0zm0-3.271a.818.818 0 10-.959-1.325 5.151 5.151 0 01-5.583 0 .818.818 0 10-.959 1.325 6.756 6.756 0 007.5 0z"/><path data-name="Контур 2083" d="M1.431 3.68a.818.818 0 00-.584 1.39l1.614 1.647.005.005a2.444 2.444 0 003.463 0l1.642-1.647A.818.818 0 006.412 3.92L4.77 5.568a.809.809 0 01-1.145 0L2.012 3.926a.815.815 0 00-.584-.246zM4.947.818v2.576a.818.818 0 11-1.636 0V.818a.818.818 0 111.636 0z"/></symbol><symbol viewBox="0 0 20.3 20.3" id="ref" xmlns="http://www.w3.org/2000/svg"><path class="asst0" d="M10.3 4.8C9 4.8 7.9 3.7 7.9 2.4S8.9 0 10.3 0s2.4 1.1 2.4 2.4c-.1 1.3-1.1 2.4-2.4 2.4zm0-3.2c-.4 0-.8.4-.8.8s.4.8.8.8.8-.4.8-.8c0-.5-.4-.8-.8-.8zm3.5 7.3c0-1.8-1.5-3.3-3.3-3.2H10c-1.8 0-3.3 1.4-3.3 3.2 0 .4.4.8.8.8s.8-.4.8-.8c0-.9.8-1.7 1.7-1.7h.5c.9 0 1.7.7 1.7 1.7 0 .4.4.8.8.8s.8-.4.8-.8zM3.5 15.4c-1.3 0-2.4-1.1-2.4-2.4s1.1-2.4 2.4-2.4 2.4 1.1 2.4 2.4c0 1.3-1.1 2.4-2.4 2.4zm0-3.2c-.4 0-.8.4-.8.8s.4.8.8.8.8-.4.8-.8-.3-.8-.8-.8zm3.6 7.3c0-1.8-1.5-3.3-3.3-3.2h-.5c-1.8 0-3.3 1.4-3.3 3.2 0 .4.4.8.8.8s.8-.4.8-.8c0-.9.8-1.7 1.7-1.7h.5c.9 0 1.7.7 1.7 1.7 0 .4.4.8.8.8s.8-.4.8-.8zm9.7-4.1c-1.3 0-2.4-1.1-2.4-2.4s1.1-2.4 2.4-2.4 2.4 1.1 2.4 2.4c-.1 1.3-1.1 2.4-2.4 2.4zm0-3.2c-.4 0-.8.4-.8.8s.4.8.8.8.8-.4.8-.8-.4-.8-.8-.8zm3.5 7.3c0-1.8-1.5-3.3-3.3-3.2h-.5c-1.8 0-3.3 1.4-3.3 3.2 0 .4.4.8.8.8s.8-.4.8-.8c0-.9.8-1.7 1.7-1.7h.5c.9 0 1.7.7 1.7 1.7 0 .4.4.8.8.8s.8-.4.8-.8zM17.4 9.3c-.4 0-.7-.3-.8-.6-.4-1.5-1.3-2.9-2.6-3.8-.4-.3-.4-.7-.2-1.1s.7-.4 1.1-.2c1.6 1.1 2.7 2.8 3.2 4.7.1.4-.2.9-.6 1h-.1zM3.8 8.7c.4-1.5 1.3-2.9 2.5-3.8.4-.3.4-.8.2-1.1-.2-.4-.7-.5-1.1-.2-1.5 1.1-2.7 2.8-3.1 4.7-.1.4.2.9.6 1 .4 0 .8-.2.9-.6zm8.9 8.5c.4-.1.7-.6.5-1-.1-.4-.6-.7-1-.5-.6.2-1.3.3-2 .3s-1.4-.1-2.1-.4c-.4-.1-.9.1-1 .6-.1.4.1.8.5.9.8.3 1.7.4 2.6.4.9.1 1.7 0 2.5-.3z"/><path class="asst0" d="M10.4 1.6c-.4 0-.8.4-.8.8s.4.8.8.8.8-.4.8-.8c0-.5-.4-.8-.8-.8zm0 3.2C9.1 4.8 8 3.7 8 2.4S8.9 0 10.4 0s2.4 1.1 2.4 2.4c-.1 1.3-1.1 2.4-2.4 2.4zm3.5 4.1c0-1.8-1.5-3.3-3.3-3.2h-.5c-1.8 0-3.3 1.4-3.3 3.2 0 .4.4.8.8.8s.8-.4.8-.8c0-.9.8-1.7 1.7-1.7h.5c.9 0 1.7.7 1.7 1.7 0 .4.4.8.8.8.3-.1.8-.4.8-.8zM3.5 15.3c-1.3 0-2.4-1.1-2.4-2.4s1.1-2.4 2.4-2.4 2.4 1.1 2.4 2.4c0 1.4-1.1 2.4-2.4 2.4zm0-3.2c-.4 0-.8.4-.8.8s.4.8.8.8.8-.4.8-.8c0-.3-.3-.8-.8-.8zm3.6 7.4c0-1.8-1.5-3.3-3.3-3.2h-.5c-1.8 0-3.3 1.4-3.3 3.2 0 .4.4.8.8.8s.8-.4.8-.8c0-.9.8-1.7 1.7-1.7h.5c.9 0 1.7.7 1.7 1.7 0 .4.4.8.8.8s.8-.5.8-.8zm9.7-4.2c-1.3 0-2.4-1.1-2.4-2.4s1.1-2.4 2.4-2.4 2.4 1.1 2.4 2.4c-.1 1.4-1.1 2.4-2.4 2.4zm0-3.2c-.4 0-.8.4-.8.8s.4.8.8.8.8-.4.8-.8c0-.3-.4-.8-.8-.8zm3.5 7.4c0-1.8-1.5-3.3-3.3-3.2h-.5c-1.8 0-3.3 1.4-3.3 3.2 0 .4.4.8.8.8s.8-.4.8-.8c0-.9.8-1.7 1.7-1.7h.5c.9 0 1.7.7 1.7 1.7 0 .4.4.8.8.8s.8-.5.8-.8z"/></symbol><symbol viewBox="0 0 26.028 26.027" id="review" xmlns="http://www.w3.org/2000/svg"><path data-name="Контур 2075" d="M10.81 12.18a4.82 4.82 0 00-.761-3.36.606.606 0 01.293-.9 4.841 4.841 0 002.62-2.3c.511-.981 1.024-2.657 2.135-2.554l-.521-1.056a1.8 1.8 0 00-3.219 0l-1.081 2.165a1.794 1.794 0 01-1.351.975l-2.406.347a1.779 1.779 0 00-.995 3.04l1.741 1.685a1.775 1.775 0 01.516 1.578l-.405 2.38a1.792 1.792 0 002.6 1.879l1.259-.657c-1.239-.67-.78-1.615-.425-3.222z" opacity=".2"/><path data-name="Контур 2076" d="M16.789 17.283a2.824 2.824 0 01-1.309-.323l-2.151-1.123a.788.788 0 00-.729 0l-2.152 1.123a2.809 2.809 0 01-4.077-2.953l.411-2.379a.759.759 0 00-.221-.674L4.82 9.268a2.8 2.8 0 011.556-4.775l2.405-.347a.777.777 0 00.586-.421l1.076-2.165a2.817 2.817 0 015.04 0l1.078 2.162a.777.777 0 00.586.421l2.404.35a2.8 2.8 0 011.557 4.777l-1.741 1.683a.759.759 0 00-.221.674l.411 2.379a2.777 2.777 0 01-1.109 2.732 2.809 2.809 0 01-1.659.545zm-3.828-3.569a2.821 2.821 0 011.306.32l2.151 1.123a.767.767 0 00.828-.062.742.742 0 00.3-.743l-.411-2.379a2.79 2.79 0 01.818-2.48l1.741-1.685a.738.738 0 00.2-.778.754.754 0 00-.633-.527l-2.405-.347a2.81 2.81 0 01-2.117-1.529l-1.078-2.164a.784.784 0 00-1.4 0l-1.072 2.164a2.81 2.81 0 01-2.117 1.529l-2.405.347a.754.754 0 00-.629.526.738.738 0 00.2.778l1.737 1.686a2.79 2.79 0 01.811 2.481l-.411 2.379a.742.742 0 00.3.743.767.767 0 00.828.061l2.158-1.123a2.821 2.821 0 011.3-.32zm-1.61-11.7z"/><path data-name="Контур 2077" d="M8.913 26.027a2.226 2.226 0 01-1.031-.255l-1.439-.751a.191.191 0 00-.176 0l-1.439.751a2.215 2.215 0 01-3.214-2.328l.275-1.591a.171.171 0 00-.05-.152l-1.165-1.13a2.207 2.207 0 011.227-3.77l1.609-.232a.188.188 0 00.106-.053 1.017 1.017 0 111.446 1.428 2.233 2.233 0 01-1.262.636l-1.609.232a.169.169 0 00-.148.122.158.158 0 00.045.175l1.164 1.127a2.2 2.2 0 01.64 1.959l-.275 1.591a.159.159 0 00.07.168.178.178 0 00.2.015l1.439-.751a2.225 2.225 0 012.058 0l1.439.751a.178.178 0 00.2-.015.159.159 0 00.07-.168l-.275-1.591a2.2 2.2 0 01.64-1.959l1.164-1.127a1.017 1.017 0 111.414 1.461l-1.164 1.127a.171.171 0 00-.05.152l.279 1.595a2.192 2.192 0 01-.875 2.156 2.215 2.215 0 01-1.308.429zm14.626-.429a2.192 2.192 0 00.875-2.156l-.275-1.591a.171.171 0 01.05-.152l1.164-1.127a2.207 2.207 0 00-1.227-3.77l-1.609-.232a.188.188 0 01-.106-.053 1.017 1.017 0 10-1.446 1.429 2.234 2.234 0 001.262.636l1.609.232a.169.169 0 01.148.122.158.158 0 01-.045.175l-1.164 1.127a2.2 2.2 0 00-.64 1.959l.275 1.591a.159.159 0 01-.07.168.178.178 0 01-.2.015l-1.439-.751a2.225 2.225 0 00-2.058 0l-1.439.751a.177.177 0 01-.2-.015.159.159 0 01-.07-.168l.275-1.591a2.2 2.2 0 00-.64-1.959l-1.164-1.127a1.017 1.017 0 10-1.414 1.461l1.164 1.127a.171.171 0 01.05.152l-.275 1.591a2.215 2.215 0 003.214 2.331l1.439-.751a.191.191 0 01.176 0l1.439.751a2.21 2.21 0 002.339-.174z"/></symbol><symbol viewBox="0 0 26.831 25.312" id="reward" xmlns="http://www.w3.org/2000/svg"><path data-name="Контур 3000" d="M14.988 13.308a3.144 3.144 0 110-5.445 3.144 3.144 0 000 5.445zM4.401 15.931a5.273 5.273 0 01-.1-1.046v-8.6a5.232 5.232 0 015.222-5.237H6.341a5.24 5.24 0 00-5.24 5.24v8.594A1.052 1.052 0 002.15 15.93z" opacity=".2"/><path data-name="Контур 3001" d="M20.543 21.172h-7.966a1.05 1.05 0 010-2.1h7.966a4.2 4.2 0 004.192-4.192V6.289A4.2 4.2 0 0020.543 2.1H6.289A4.2 4.2 0 002.1 6.289v8.07a.525.525 0 00.524.524h3.141a1.05 1.05 0 110 2.1H2.62A2.623 2.623 0 010 14.359v-8.07A6.3 6.3 0 016.289 0h14.254a6.3 6.3 0 016.289 6.289v8.594a6.3 6.3 0 01-6.289 6.289zm-11.11-1.05a1.048 1.048 0 00-1.048-1.048H1.048a1.05 1.05 0 100 2.1h7.337a1.048 1.048 0 001.048-1.052zm3.144 4.141a1.048 1.048 0 00-1.048-1.048H1.048a1.05 1.05 0 100 2.1h10.481a1.048 1.048 0 001.048-1.052zm5.031-13.678a4.192 4.192 0 10-4.192 4.192 4.2 4.2 0 004.192-4.191zm-2.1 0a2.1 2.1 0 11-2.1-2.1 2.1 2.1 0 012.104 2.101z"/><path data-name="Контур 3002" d="M21.645 8.122a2.886 2.886 0 01-2.882-2.882 1.05 1.05 0 112.1 0 .787.787 0 00.786.786 1.05 1.05 0 010 2.1zM8.175 5.345a1.05 1.05 0 00-2.1 0 .787.787 0 01-.786.786 1.05 1.05 0 000 2.1 2.886 2.886 0 002.886-2.886zm12.682 10.586a.787.787 0 01.786-.786 1.05 1.05 0 000-2.1 2.886 2.886 0 00-2.882 2.882 1.05 1.05 0 102.1 0z"/></symbol><symbol viewBox="0 0 24 24" id="tg" xmlns="http://www.w3.org/2000/svg"><path d="M12 24c-3.2 0-6.2-1.3-8.5-3.5C1.3 18.2 0 15.2 0 12s1.3-6.2 3.5-8.5C5.8 1.3 8.8 0 12 0s6.2 1.3 8.5 3.5C22.7 5.8 24 8.8 24 12s-1.3 6.2-3.5 8.5C18.2 22.7 15.2 24 12 24zm-.2-8.2l3 2.2c.1.1.3.1.5.2.3 0 .5-.2.6-.7l2-9.3c.1-.3 0-.6-.1-.8-.1-.1-.3-.2-.4-.2-.1 0-.2 0-.3.1L5.5 11.7c-.4.2-.6.4-.6.5 0 .2.2.3.5.4l3 .9 6.9-4.3c.1-.1.2-.1.3-.1.1 0 .1 0 .1.1s0 .1-.1.2l-5.6 5-.2 3.1c.2 0 .5-.1.6-.3l1.4-1.4z"/></symbol><symbol viewBox="0 0 12 10.1" id="tg2" xmlns="http://www.w3.org/2000/svg"><path d="M9.6 10.1c-.2 0-.3-.1-.4-.1L6.4 8 5.1 9.2c-.2.2-.4.3-.6.3l.2-2.8L9.8 2c.1 0 .1-.1.1-.1s0-.1-.1-.1-.2 0-.3.1l-6.3 4L.4 5c-.2-.1-.4-.2-.4-.3 0-.2.2-.4.6-.5L11.3.1c.1 0 .2 0 .3-.1.2 0 .3.1.4.2 0 .2.1.5 0 .7l-1.8 8.5c-.1.5-.3.7-.6.7z"/></symbol><symbol viewBox="0 0 24.558 27.582" id="time" xmlns="http://www.w3.org/2000/svg"><path data-name="Контур 2055" d="M5.493 16.54a9.965 9.965 0 018.348-9.832 9.963 9.963 0 100 19.664 9.965 9.965 0 01-8.348-9.832z" opacity=".232"/><path data-name="Контур 2056" d="M12.225 27.582a11.04 11.04 0 1111.04-11.04 11.053 11.053 0 01-11.04 11.04zm0-19.927a8.886 8.886 0 108.891 8.886 8.9 8.9 0 00-8.891-8.886z"/><path data-name="Контур 2057" d="M15.42 3.225a1.077 1.077 0 11-2.154 0 1.077 1.077 0 00-2.154.007 1.077 1.077 0 11-2.154 0 3.232 3.232 0 016.463-.007zm8.822 3.884L21.55 4.416a1.077 1.077 0 00-1.519 1.523l2.693 2.693a1.077 1.077 0 001.523-1.523zM3.008 4.47L.315 7.163a1.077 1.077 0 001.523 1.523l2.693-2.693A1.077 1.077 0 103.008 4.47zM14.4 16.208a3.025 3.025 0 00-2.014-.744c-.522 0-.916-.232-.916-.539a.539.539 0 01.539-.539 4.246 4.246 0 011.656.358 1.077 1.077 0 00.781-2.008 8.63 8.63 0 00-.929-.306v-.2a1.077 1.077 0 10-2.154 0v.079a2.7 2.7 0 00-2.047 2.614 2.836 2.836 0 003.07 2.693c.409 0 .754.247.754.539a.56.56 0 01-.565.539 5.716 5.716 0 01-1.837-.409 1.077 1.077 0 00-.8 2 8.4 8.4 0 001.421.42v.14a1.077 1.077 0 102.154 0v-.167a2.7 2.7 0 001.777-2.526 2.615 2.615 0 00-.894-1.949z"/></symbol><symbol viewBox="0 0 41.3 46.4" id="tron" xmlns="http://www.w3.org/2000/svg"><path d="M40.8 18.4l-6.7-7.9c-.2-.3-.6-.5-.9-.6L2.6.1C1.9-.1 1.1.1.6.6s-.7 1.3-.5 2L11.8 45c.2.7.7 1.2 1.4 1.4.2 0 .3.1.5.1.5 0 1-.2 1.4-.6l25.6-24.7c.7-.8.8-2 .1-2.8zM21.3 22l13.3-.5L17 38.4 21.3 22zm-1.4-3.2L7.3 5.8l21.6 6.9-9 6.1zm15.7-.3l-10.4.4 6.8-4.6 3.6 4.2zM5.3 6.6l13.3 13.8L14 38.1 5.3 6.6z"/></symbol><symbol viewBox="0 0 21 21" id="withdraw" xmlns="http://www.w3.org/2000/svg"><path data-name="Контур 2078" d="M6.615 20.082h-1.6a4.1 4.1 0 01-4.1-4.1v-3.129a5.977 5.977 0 012.279-4.7l2.93-2.307-2.04-3.188A1.26 1.26 0 015.144.723h3.454l.012.918c-1.723 0-1.6 1.141-1.215 1.868L8.467 5.33a1.615 1.615 0 01-.308 2.135l-3.815 3.076a2.691 2.691 0 00-.965 2.088l.03 3.449a4.1 4.1 0 003.206 4.004zm9.463-8.557c0-.861.848-1.6 2.051-1.9a5.03 5.03 0 00-1.23-.15c-1.812 0-3.281.918-3.281 2.051s1.469 2.051 3.281 2.051a5.03 5.03 0 001.23-.15c-1.202-.305-2.051-1.041-2.051-1.902z" opacity=".2"/><path data-name="Контур 2079" class="azcls-2" d="M16.9 14.4c-2.3 0-4.1-1.261-4.1-2.871s1.8-2.871 4.1-2.871S21 9.915 21 11.525 19.2 14.4 16.9 14.4zm0-4.1a3.659 3.659 0 00-1.885.476 1.021 1.021 0 00-.576.755 1.021 1.021 0 00.576.755 3.972 3.972 0 003.771 0 1.021 1.021 0 00.576-.755 1.021 1.021 0 00-.576-.755 3.659 3.659 0 00-1.886-.481zm-5.539 9.88a.82.82 0 00-.82-.82H4.922a3.285 3.285 0 01-3.281-3.281V12.95A5.127 5.127 0 013.607 8.9l2.93-2.307a.82.82 0 00.183-1.088L4.68 2.317a.44.44 0 01.37-.676h10.177a.439.439 0 01.372.674L13.58 5.509a.82.82 0 00.179 1.077l1.189.959a.82.82 0 001.03-1.277l-.62-.5 1.628-2.576A2.08 2.08 0 0015.227 0H5.05A2.08 2.08 0 003.3 3.2l1.637 2.563L2.592 7.61A6.8 6.8 0 000 12.95v3.128A4.927 4.927 0 004.922 21h5.619a.82.82 0 00.82-.82z"/><path data-name="Контур 2080" class="azcls-2" d="M16.857 21a6.442 6.442 0 01-3.762-1.14.82.82 0 01.962-1.329 5.167 5.167 0 005.6 0 .82.82 0 01.962 1.329A6.442 6.442 0 0116.857 21zm3.762-4.463a.82.82 0 00-.962-1.329 5.167 5.167 0 01-5.6 0 .82.82 0 00-.962 1.329 6.777 6.777 0 007.525 0zm-8.561-10.59a.82.82 0 00-.82-.82H9.064a.82.82 0 000 1.641h2.174a.82.82 0 00.82-.821z"/></symbol></svg>